<?xml version="1.0" encoding="UTF-8" standalone="no"?>
<!-- Created with Inkscape (http://www.inkscape.org/) -->

<svg
   xmlns:dc="http://purl.org/dc/elements/1.1/"
   xmlns:cc="http://creativecommons.org/ns#"
   xmlns:rdf="http://www.w3.org/1999/02/22-rdf-syntax-ns#"
   xmlns:svg="http://www.w3.org/2000/svg"
   xmlns="http://www.w3.org/2000/svg"
   xmlns:sodipodi="http://sodipodi.sourceforge.net/DTD/sodipodi-0.dtd"
   xmlns:inkscape="http://www.inkscape.org/namespaces/inkscape"
   version="1.1"
   id="svg2"
   xml:space="preserve"
   width="700"
   height="700"
   viewBox="0 0 700 700"
   sodipodi:docname="dragon_logo.svg"
   inkscape:version="0.92.1 r15371"><metadata
     id="metadata8"><rdf:RDF><cc:Work
         rdf:about=""><dc:format>image/svg+xml</dc:format><dc:type
           rdf:resource="http://purl.org/dc/dcmitype/StillImage" /><dc:title></dc:title></cc:Work></rdf:RDF></metadata><defs
     id="defs6" /><sodipodi:namedview
     pagecolor="#ffffff"
     bordercolor="#666666"
     borderopacity="1"
     objecttolerance="10"
     gridtolerance="10"
     guidetolerance="10"
     inkscape:pageopacity="0"
     inkscape:pageshadow="2"
     inkscape:window-width="1366"
     inkscape:window-height="740"
     id="namedview4"
     showgrid="false"
     inkscape:zoom="0.31516602"
     inkscape:cx="1168.06"
     inkscape:cy="800"
     inkscape:window-x="0"
     inkscape:window-y="0"
     inkscape:window-maximized="1"
     inkscape:current-layer="g10" /><g
     id="g10"
     inkscape:groupmode="layer"
     inkscape:label="dragon"
     transform="matrix(1.3333333,0,0,-1.3333333,0,700)"><path
       inkscape:connector-curvature="0"
       id="path48"
       style="fill:#f58614;fill-opacity:1;fill-rule:nonzero;stroke:none;stroke-width:0.1"
       d="m 426.3385,104.55099 c 0.511,28.617 -26.658,62.684 -26.658,62.684 l 7.325,19.897 6.217,19.365 c 4.173,-34.237 12.438,-36.181 16.839,-56.457 5.767,-26.571 -3.723,-45.489 -3.723,-45.489 z m -14.62,-31.427003 -46.745,30.149003 c 0,0 30.342,3.2 33.22,4.501 9.834,4.442 4.846,28.204 4.846,28.204 22.022,-27.211 8.679,-62.854003 8.679,-62.854003 z m -57.432,78.778003 c -10.221,16.099 -32.705,22.232 -32.705,22.232 0,0 23.166,4.428 43.266,-11.243 l 24.869,-46.331 -37.474,-2.726 c 18.737,15.933 2.044,38.068 2.044,38.068 z m -103.224,57.661 c 0,0 18.95,-10.22 45.863,-5.11 l 28.044,5.118 c 0,0 27.019,-11.694 36.215,-34.86 -5.934,5.996 -19.503,11.687 -39.603,7.599 -31.198,-6.346 -66.091,12.945 -70.519,27.253 z m -1.434,-134.022003 -19.688,54.226003 38.624,9.959 42.264,-33.669 z m -35.53,96.548003 16.656,13.334 30.969,-37.07 -37.745,-9.65 z m -9.965,37.482 16.268,9.531 6.382,-24.485 -17.36,-11.932 z m -16.432,45.643 24.524,36.111 8.176,-15.671 6.382,-20.877 -9.966,-5.682 2.094,-20.369 -24.712,-14.129 z m -26.064,23.336 -37.136,-5.11 21.51,31.853 -22.616,-8.176 -54.252996,-5.792 81.761996,52.46396 h 25.039 l 37.815,-10.90096 -37.317,-12.946 3.303,-15.671 z m -5.55,-71.286 -42.743,-20.866 -57.743996,-12.946 63.877996,85.85 42.159,6.473 z m 0,-79.462 -68.463996,-21.292 -10.235,20.808 10.235,11.385 34.462996,37.267 34.001,15.077 z m 80.326,269.13194 36.987,-30.31998 13.986,-25.465 -23.379,4.684 -25.125,20.781 -31.64,12.94598 -89.299,10.901 z m 19.844,-102.28694 0.937,14.564 45.85,-14.848 15.471,-30.377 c -7.025,-2.873 -12.994,-1.54 -16.352,0 l -7.41,16.778 z m -73.501,59.87296 25.217,8.499 26.651,-4.751 17.8,-14.479 -22.143,-4.42896 z m 49.058,-50.24896 19.248,-15.331 19.929,-8.261 -19.929,-5.365 -17.205,-16.012 -6.643,22.144 z m 80.228,-88.235 c 0,0 -48.716,-10.56 -60.98,12.605 0,0 16.607,-5.28 29.979,-2.725 0,0 -17.034,21.122 -15.33,45.309 0,0 31.768,-22.654 54.933,-14.308 0,0 -16.08,-15.92 -31.768,-16.649 0,0 4.215,-15.844 23.166,-24.232 z m -15.372,229.41494 31.043,-63.166 13.968,-45.30994 v -26.572 c 0,0 -13.797,16.012 -42.124,27.084 l -12.171,25.53196 c 0,0 15.458,-4.581 17.503,-4.581 l -17.503,70.32098 -66.985,72.762 z m 70.902,-218.51294 v -20.441 c 0,0 -12.351,14.872 -16.012,28.276 -3.66,13.405 -0.34,14.649 0,31.002 0,0 3.63,-12.685 9.198,-20.781 7.264,-10.561 6.814,-18.056 6.814,-18.056 z m 14.586,155.68794 8.987,-65.58694 13.049,-14.727 c 0,0 -18.141,-19.248 -22.314,-31.087 0,0 -4.723,19.958 -7.835,23.166 -7.569,7.802 -24.19,12.265 -24.19,12.265 l 1.109,30.149 7.752,-4.939 v 55.52894 l -25.552,74.608 c 0,0 40.755,-67.454 48.994,-79.377 z m 41.861,-76.84294 c -0.014,-0.057 -0.09,-0.164 -0.191,-0.293 -1.916,-3.667 -17.728,-39.026 -16.148,-63.06 1.578,-23.992 -11.646,-55.298 -11.646,-55.298 0,0 -21.119,41.169 -9.877,68.082 10.772,25.787 35.334,47.321 37.671,50.276 0.141,0.272 0.215,0.387 0.191,0.293 z m -161.52,205.89704 c -137.511,0 -249.384998,-111.8731 -249.384998,-249.38504 0,-73.297 31.789,-139.305 82.300002,-184.974003 l 25.850996,17.521 3.116,8.271003 4.612,1.438 27.094,8.34 -12.028,-70.014003 c 31.341,-16.986 66.71,-27.442 104.272,-29.557 l 5.541,49.328 67.709,36.133 c 0.555,-0.554 50.348,-36.979 68.826,-50.492 72.70801,43.621 121.47801,123.221003 121.47801,214.006003 0,137.51194 -111.87401,249.38504 -249.38601,249.38504" /></g></svg>