<?xml version="1.0" encoding="UTF-8" standalone="no"?>
<!-- Created with Inkscape (http://www.inkscape.org/) -->

<svg
   xmlns:dc="http://purl.org/dc/elements/1.1/"
   xmlns:cc="http://creativecommons.org/ns#"
   xmlns:rdf="http://www.w3.org/1999/02/22-rdf-syntax-ns#"
   xmlns:svg="http://www.w3.org/2000/svg"
   xmlns="http://www.w3.org/2000/svg"
   xmlns:xlink="http://www.w3.org/1999/xlink"
   xmlns:sodipodi="http://sodipodi.sourceforge.net/DTD/sodipodi-0.dtd"
   xmlns:inkscape="http://www.inkscape.org/namespaces/inkscape"
   width="300"
   height="263"
   viewBox="0 0 79.374998 69.585431"
   version="1.1"
   id="svg8"
   inkscape:version="0.92.1 r15371"
   sodipodi:docname="home.svg">
  <defs
     id="defs2">
    <linearGradient
       inkscape:collect="always"
       id="linearGradient130193">
      <stop
         style="stop-color:#008000;stop-opacity:1"
         offset="0"
         id="stop130189" />
      <stop
         style="stop-color:#00ff00;stop-opacity:1"
         offset="1"
         id="stop130191" />
    </linearGradient>
    <inkscape:path-effect
       end_linecap_type="zerowidth"
       miter_limit="4"
       linejoin_type="extrp_arc"
       start_linecap_type="zerowidth"
       interpolator_beta="0.2"
       interpolator_type="CubicBezierJohan"
       sort_points="true"
       offset_points="0,0.037739853"
       is_visible="true"
       id="path-effect130186"
       effect="powerstroke" />
    <inkscape:path-effect
       effect="powerstroke"
       id="path-effect130182"
       is_visible="true"
       offset_points="0,-0.18620416"
       sort_points="true"
       interpolator_type="CubicBezierJohan"
       interpolator_beta="0.2"
       start_linecap_type="zerowidth"
       linejoin_type="extrp_arc"
       miter_limit="4"
       end_linecap_type="zerowidth" />
    <inkscape:path-effect
       end_linecap_type="zerowidth"
       miter_limit="4"
       linejoin_type="extrp_arc"
       start_linecap_type="zerowidth"
       interpolator_beta="0.2"
       interpolator_type="CubicBezierJohan"
       sort_points="true"
       offset_points="0,-0.24169814"
       is_visible="true"
       id="path-effect130178"
       effect="powerstroke" />
    <inkscape:path-effect
       effect="powerstroke"
       id="path-effect130174"
       is_visible="true"
       offset_points="0,-0.49238047"
       sort_points="true"
       interpolator_type="CubicBezierJohan"
       interpolator_beta="0.2"
       start_linecap_type="zerowidth"
       linejoin_type="extrp_arc"
       miter_limit="4"
       end_linecap_type="zerowidth" />
    <inkscape:path-effect
       end_linecap_type="zerowidth"
       miter_limit="4"
       linejoin_type="extrp_arc"
       start_linecap_type="zerowidth"
       interpolator_beta="0.2"
       interpolator_type="CubicBezierJohan"
       sort_points="true"
       offset_points="0.0019599651,-0.56248465"
       is_visible="true"
       id="path-effect130170"
       effect="powerstroke" />
    <inkscape:path-effect
       effect="powerstroke"
       id="path-effect130166"
       is_visible="true"
       offset_points="0,-0.55625138"
       sort_points="true"
       interpolator_type="CubicBezierJohan"
       interpolator_beta="0.2"
       start_linecap_type="zerowidth"
       linejoin_type="extrp_arc"
       miter_limit="4"
       end_linecap_type="zerowidth" />
    <inkscape:path-effect
       end_linecap_type="zerowidth"
       miter_limit="4"
       linejoin_type="extrp_arc"
       start_linecap_type="zerowidth"
       interpolator_beta="0.2"
       interpolator_type="CubicBezierJohan"
       sort_points="true"
       offset_points="0,-0.79065393"
       is_visible="true"
       id="path-effect130162"
       effect="powerstroke" />
    <inkscape:path-effect
       effect="powerstroke"
       id="path-effect130158"
       is_visible="true"
       offset_points="0.0082003765,0.60402875"
       sort_points="true"
       interpolator_type="CubicBezierJohan"
       interpolator_beta="0.2"
       start_linecap_type="zerowidth"
       linejoin_type="extrp_arc"
       miter_limit="4"
       end_linecap_type="zerowidth" />
    <inkscape:path-effect
       effect="powerstroke"
       id="path-effect130154"
       is_visible="true"
       offset_points="0,0.037739853"
       sort_points="true"
       interpolator_type="CubicBezierJohan"
       interpolator_beta="0.2"
       start_linecap_type="zerowidth"
       linejoin_type="extrp_arc"
       miter_limit="4"
       end_linecap_type="zerowidth" />
    <inkscape:path-effect
       end_linecap_type="zerowidth"
       miter_limit="4"
       linejoin_type="extrp_arc"
       start_linecap_type="zerowidth"
       interpolator_beta="0.2"
       interpolator_type="CubicBezierJohan"
       sort_points="true"
       offset_points="0,-0.18620416"
       is_visible="true"
       id="path-effect130150"
       effect="powerstroke" />
    <inkscape:path-effect
       effect="powerstroke"
       id="path-effect130146"
       is_visible="true"
       offset_points="0,-0.24169814"
       sort_points="true"
       interpolator_type="CubicBezierJohan"
       interpolator_beta="0.2"
       start_linecap_type="zerowidth"
       linejoin_type="extrp_arc"
       miter_limit="4"
       end_linecap_type="zerowidth" />
    <inkscape:path-effect
       end_linecap_type="zerowidth"
       miter_limit="4"
       linejoin_type="extrp_arc"
       start_linecap_type="zerowidth"
       interpolator_beta="0.2"
       interpolator_type="CubicBezierJohan"
       sort_points="true"
       offset_points="0,-0.49238047"
       is_visible="true"
       id="path-effect130142"
       effect="powerstroke" />
    <inkscape:path-effect
       effect="powerstroke"
       id="path-effect130138"
       is_visible="true"
       offset_points="0.0019599651,-0.56248465"
       sort_points="true"
       interpolator_type="CubicBezierJohan"
       interpolator_beta="0.2"
       start_linecap_type="zerowidth"
       linejoin_type="extrp_arc"
       miter_limit="4"
       end_linecap_type="zerowidth" />
    <inkscape:path-effect
       end_linecap_type="zerowidth"
       miter_limit="4"
       linejoin_type="extrp_arc"
       start_linecap_type="zerowidth"
       interpolator_beta="0.2"
       interpolator_type="CubicBezierJohan"
       sort_points="true"
       offset_points="0,-0.55625138"
       is_visible="true"
       id="path-effect130134"
       effect="powerstroke" />
    <inkscape:path-effect
       effect="powerstroke"
       id="path-effect130130"
       is_visible="true"
       offset_points="0,-0.79065393"
       sort_points="true"
       interpolator_type="CubicBezierJohan"
       interpolator_beta="0.2"
       start_linecap_type="zerowidth"
       linejoin_type="extrp_arc"
       miter_limit="4"
       end_linecap_type="zerowidth" />
    <inkscape:path-effect
       end_linecap_type="zerowidth"
       miter_limit="4"
       linejoin_type="extrp_arc"
       start_linecap_type="zerowidth"
       interpolator_beta="0.2"
       interpolator_type="CubicBezierJohan"
       sort_points="true"
       offset_points="0.0082003765,0.60402875"
       is_visible="true"
       id="path-effect130126"
       effect="powerstroke" />
    <inkscape:path-effect
       effect="powerstroke"
       id="path-effect130122"
       is_visible="true"
       offset_points="0,-0.86361956"
       sort_points="true"
       interpolator_type="CubicBezierJohan"
       interpolator_beta="0.2"
       start_linecap_type="zerowidth"
       linejoin_type="extrp_arc"
       miter_limit="4"
       end_linecap_type="zerowidth" />
    <inkscape:path-effect
       effect="powerstroke"
       id="path-effect130118"
       is_visible="true"
       offset_points="0.00068873805,1.3533158"
       sort_points="true"
       interpolator_type="CubicBezierJohan"
       interpolator_beta="0.2"
       start_linecap_type="zerowidth"
       linejoin_type="extrp_arc"
       miter_limit="4"
       end_linecap_type="zerowidth" />
    <inkscape:path-effect
       effect="powerstroke"
       id="path-effect130114"
       is_visible="true"
       offset_points="0,1.1773102"
       sort_points="true"
       interpolator_type="CubicBezierJohan"
       interpolator_beta="0.2"
       start_linecap_type="zerowidth"
       linejoin_type="extrp_arc"
       miter_limit="4"
       end_linecap_type="zerowidth" />
    <symbol
       id="heavy_rains">
      <title
         id="title8724">Heavy Rains</title>
      <path
         style="stroke-width:1"
         inkscape:connector-curvature="0"
         d="m 111.73169,46.71351 c 0.52811,-2.383102 1.17052,-4.643437 1.5158,-6.947958 C 115.40966,25.354756 106.57893,11.379465 91.094719,8.9640833 76.936335,6.7553417 63.344425,14.631987 59.936327,30.499579 c -0.03281,0.152665 -0.0717,0.306123 -0.08255,0.461433 -0.0844,1.192742 -0.699029,1.361017 -1.790965,1.141942 -3.556,-0.713846 -7.072312,-0.562239 -10.463741,0.855663 -6.111875,2.555345 -9.729259,9.017264 -8.978636,16.010995 0.774436,7.21704 5.170223,12.236186 11.986948,13.641123 2.628107,0.541602 5.29934,0.266171 7.952317,0.316707 1.016,0.01931 2.033852,0.03016 3.048794,-0.0082 0.520171,-0.01958 0.662516,0.150547 0.655373,0.660664 -0.02752,1.915319 -0.0093,3.831167 -0.01323,5.74675 -5.29e-4,0.293952 0.103453,0.660929 -0.41566,0.642673 C 57.16905,69.804492 52.462642,70.450075 47.864183,69.041433 38.218269,66.086037 31.322962,56.656023 31.534365,46.601327 31.750794,36.300569 40.663019,26.313606 50.880698,24.920575 c 0.309298,-0.04207 0.629708,-0.177271 0.923925,-0.132292 2.037292,0.312473 2.697427,-0.85381 3.496998,-2.547143 C 60.827973,10.537296 70.02489,3.44805 82.89634,1.8274771 93.698219,0.46751875 102.97425,4.2605854 110.5953,11.919215 c 6.69423,6.727295 10.07428,14.916414 10.02533,24.455437 -0.006,1.090083 -0.50059,2.405063 -0.0452,3.202781 0.4109,0.718873 1.85764,0.790311 2.77257,1.285875 5.60678,3.037682 9.00747,7.587192 9.00218,14.127427 -0.006,7.641696 -7.30356,14.854238 -14.94737,14.963775 -3.7129,0.05318 -7.42738,-0.0016 -11.14134,0.02672 -0.62415,0.005 -0.88715,-0.103716 -0.86625,-0.810154 0.0529,-1.796785 0.0654,-3.598333 -0.004,-5.393796 -0.0304,-0.791898 0.28019,-0.865452 0.93874,-0.859896 3.51817,0.02805 7.0366,0.02328 10.55555,0.01111 6.82229,-0.02302 10.72727,-6.59421 7.46099,-12.629356 -1.74678,-3.227652 -4.73948,-4.080404 -8.15367,-3.919802 -1.4732,0.06853 -2.94269,0.217752 -4.46087,0.334168 z"
         id="path8726" />
      <path
         style="stroke-width:1"
         inkscape:connector-curvature="0"
         d="m 102.6377,88.296221 c -0.16828,3.757612 -0.59955,7.470775 -1.8759,11.040269 -0.39714,1.1094 -0.909902,2.15953 -1.674548,3.06599 -1.477169,1.75022 -3.409156,2.03174 -5.583767,0.82894 -2.002102,-1.10781 -2.64742,-2.72865 -1.945216,-4.933685 0.556683,-1.746514 1.618985,-3.194843 2.7813,-4.570941 2.35585,-2.790561 5.084498,-5.182394 7.995971,-7.373144 0.79349,0.538956 0.24342,1.287992 0.30216,1.942571 z"
         id="path8728" />
      <path
         style="stroke-width:1"
         inkscape:connector-curvature="0"
         d="m 86.848156,86.94764 c -0.148166,3.705225 -0.38735,7.085012 -1.361016,10.367433 -0.378884,1.276879 -0.859367,2.509573 -1.708944,3.558117 -1.281377,1.58062 -2.896659,1.84362 -4.803775,0.80036 -1.780117,-0.97393 -2.329127,-2.380981 -1.666081,-4.326992 0.137583,-0.403225 0.307445,-0.804598 0.522287,-1.172104 2.191544,-3.746235 5.473965,-6.417204 9.017529,-9.226814 z"
         id="path8730" />
      <path
         style="stroke-width:1"
         inkscape:connector-curvature="0"
         d="m 101.06422,64.968437 c -0.18098,4.479132 -0.34555,8.867511 -2.477824,12.86563 -1.122627,2.105289 -2.812256,2.702718 -4.775465,1.902089 -2.328598,-0.948796 -3.043766,-2.642129 -2.079889,-4.984221 0.20611,-0.50165 0.464873,-0.986895 0.74877,-1.449387 1.569509,-2.553494 6.1468,-7.019661 8.584408,-8.334111 z"
         id="path8732" />
      <path
         style="stroke-width:1"
         inkscape:connector-curvature="0"
         d="m 71.766112,79.303298 c -0.109537,4.191 -0.410633,8.058944 -1.818216,11.754908 -0.20664,0.542661 -0.490273,1.065213 -0.802746,1.556279 -1.55284,2.437871 -4.358746,2.678113 -6.339152,0.55589 -0.823913,-0.883179 -0.961231,-1.925902 -0.669396,-3.055408 0.277548,-1.074209 0.81571,-2.023005 1.45706,-2.913327 2.191544,-3.042973 5.010944,-5.434807 8.17245,-7.898342 z"
         id="path8734" />
      <path
         style="stroke-width:1"
         inkscape:connector-curvature="0"
         d="m 86.037208,57.08994 c -0.186002,4.624652 -0.362743,8.976518 -2.432314,12.957704 -1.105959,2.126985 -2.703777,2.772568 -4.617509,2.091531 -2.510102,-0.893498 -3.309408,-2.729177 -2.262452,-5.182129 0.323586,-0.757767 0.744273,-1.458913 1.231636,-2.118254 2.194718,-2.969684 4.957762,-5.338763 8.080639,-7.748852 z"
         id="path8736" />
      <path
         style="stroke-width:1"
         inkscape:connector-curvature="0"
         d="m 87.314352,73.246192 c -0.116946,2.610643 -0.274108,4.944533 -0.899848,7.220214 -0.238919,0.869156 -0.541602,1.713706 -1.027377,2.476765 -0.959644,1.507596 -2.281502,1.855523 -3.816615,1.021291 -1.412345,-0.766762 -1.768739,-1.956593 -1.040606,-3.58431 0.716227,-1.600994 1.903148,-2.84824 3.133461,-4.053681 1.081087,-1.058598 2.226468,-2.043642 3.650985,-3.080279 z"
         id="path8738" />
      <path
         style="stroke-width:1"
         inkscape:connector-curvature="0"
         d="m 68.549044,67.590987 c -0.184944,3.333486 -0.306388,6.370638 -1.634861,9.178925 -1.0033,2.121694 -2.708539,2.611173 -4.474368,1.371336 -0.890059,-0.624946 -1.236134,-1.459706 -0.974196,-2.545556 0.206375,-0.855398 0.627327,-1.596496 1.134798,-2.291027 1.581679,-2.164028 3.595158,-3.879321 5.948627,-5.713678 z"
         id="path8740" />
      <path
         style="stroke-width:1"
         inkscape:connector-curvature="0"
         d="m 102.6377,88.296221 c -0.27676,-0.620448 0.22992,-1.36234 -0.30242,-1.943629 0.2667,-0.331259 0.46752,-0.265907 0.46434,0.13626 -0.004,0.603779 0.082,1.222904 -0.16192,1.807369 z"
         id="path8742" />
    </symbol>
    <symbol
       id="symbol9761">
      <title
         id="title9757">Home</title>
      <path
         inkscape:connector-curvature="0"
         d="M 50.8,152.4 67.733333,254 H 118.53333 V 169.33333 H 152.4 V 254 h 50.8 L 220.13333,152.4 135.46667,67.733333 Z M 220.13333,101.6 V 33.866667 h -33.86666 l 0.0825,33.949216 -50.8825,-50.88255 L 0,152.4 H 33.866667 L 135.46667,50.8 l 101.6,101.6 h 33.86666 z"
         style="stroke:none;stroke-width:1"
         id="path9759" />
    </symbol>
    <symbol
       id="embassy2"
       viewBox="0 0 497.85098 473.64472">
      <title
         id="title12086">embassy2</title>
      <path
         style="stroke-width:1"
         inkscape:connector-curvature="0"
         d="M 1.8364534,4.0494336e-5 A 0.55798344,0.55798344 0 0 0 1.5455152,0.08634017 C 1.4553185,0.14338645 1.3847936,0.26994141 1.3367423,0.40259979 l -0.023254,-0.0180869 c 0,0 -4.4466075,13.45661311 3.0230711,23.42906311 3.8255257,5.792259 13.1614366,11.631 21.7661126,14.400671 l 10.105327,11.082012 c -1.66475,-0.892085 -3.48121,-1.737397 -5.488554,-2.456698 -5.619012,-2.013482 -12.110296,-1.806335 -17.179313,-1.174605 -2.534508,0.315865 -4.7146086,0.741262 -6.2440633,1.058849 -0.7647273,0.158793 -1.3690264,0.291037 -1.7606161,0.366903 -0.1667473,0.03231 -0.2706759,0.04788 -0.3410646,0.05684 a 0.55798344,0.55798344 0 0 0 -0.648539,0.307994 c -0.040688,0.08937 -0.028326,0.259199 0.016536,0.417028 l -0.03514,-0.0016 c 0,0 5.1613713,15.033281 16.900261,19.292361 3.412662,1.470358 8.569471,1.925015 13.519071,1.021127 4.695645,-0.857512 9.204251,-2.981187 11.705746,-6.780982 6.805832,7.902101 13.051658,13.172062 18.841228,16.827913 C 58.911929,77.5863 52.270967,77.463796 45.68339,78.165777 a 0.55798344,0.55798344 0 0 0 -0.02635,0.0037 C 40.566663,78.959321 36.652132,81.143592 32.74,83.804792 28.827865,86.46599 24.901197,89.60489 19.713922,92.410468 a 0.55798344,0.55798344 0 0 0 -0.04599,0.02791 c -0.488352,0.328742 -1.291444,1.067967 -2.155941,1.777669 -0.432247,0.354849 -0.867042,0.694627 -1.234033,0.94206 -0.36699,0.247433 -0.70923,0.382532 -0.725021,0.384474 a 0.55798344,0.55798344 0 0 0 -0.213423,1.035595 c 9.657577,5.648284 19.267857,14.623694 28.867488,15.724624 18.297075,2.09838 35.408039,-11.14026 35.438146,-27.468092 3.617698,1.187365 7.054496,2.051645 10.30945,2.93057 6.42039,1.733672 10.548012,3.613258 16.611392,8.744685 5.98849,5.068047 10.78793,13.497457 17.93276,28.490767 a 0.55798344,0.55798344 0 0 0 0.62993,0.30334 l 6.16293,-1.43299 a 0.55798344,0.55798344 0 0 0 0.37724,-0.78341 C 124.37632,107.78443 117.6902,98.784307 111.00809,93.12924 104.32435,87.47283 97.712414,85.300399 91.120928,83.520523 89.582538,83.105114 88.88739,83.106609 88.301462,83.09936 87.925828,83.09466 87.478322,83.0389 86.880877,82.911775 93.978251,77.848584 96.754603,66.251976 94.437004,54.304218 92.005116,41.767268 83.901473,28.755644 68.93882,22.409526 a 0.55798344,0.55798344 0 0 0 -0.744141,0.327628 C 59.382112,47.646696 66.549442,66.193622 76.888205,79.197271 69.079602,75.469052 58.067797,68.303561 48.551433,56.850317 56.416456,48.680066 59.256999,39.878085 57.458901,31.041557 55.632533,22.066101 49.11934,13.112034 38.606304,4.5868381 A 0.55798344,0.55798344 0 0 0 37.75106,4.7811412 C 32.861059,15.084035 31.626154,23.358982 32.597368,30.474147 c 0.683514,5.007438 2.466149,9.419119 4.779036,13.561965 L 30.16186,36.111532 C 30.13601,32.109341 29.402424,24.023364 24.22062,17.165399 20.637839,12.423696 15.012445,8.2365231 10.331027,5.1775021 7.9903177,3.6479919 5.8843886,2.4034454 4.3944384,1.527596 3.6494633,1.0896708 3.0567995,0.7425264 2.6761969,0.50543592 2.5023045,0.39711207 2.3869425,0.31827893 2.3206633,0.26927466 A 0.55798344,0.55798344 0 0 0 1.8364551,4.0494336e-5 Z"
         id="path12088" />
    </symbol>
    <symbol
       viewBox="0 0 64 64"
       id="emoji-1f302">
      <title
         id="title38079">1f302</title>
      <path
         style="fill:#d0d0d0;stroke-width:0.99999046"
         inkscape:connector-curvature="0"
         d="M 12.870445,4.1170677 9.867701,7.1198121 9.3837073,6.6358183 12.386452,3.633074 Z"
         id="path38081" />
      <path
         style="fill:#f2b200;stroke-width:1"
         inkscape:connector-curvature="0"
         d="M 9.7197333,6.9479583 C 8.4611104,5.6896 8.6841542,4.51485 9.1043125,3.6430479 L 0.72469375,15.87209 13.17334,7.4027771 C 12.302331,7.8171146 10.932054,8.1608083 9.7205271,6.9490167"
         id="path38083" />
      <path
         style="fill:#ffce31;stroke-width:1"
         inkscape:connector-curvature="0"
         d="M 5.7062687,2.936875 C 4.9260125,2.1568833 4.5762333,1.1533187 4.7169917,0.33628542 L 0.72442917,15.873942 9.2307833,3.4615437 C 8.4026375,4.2896896 6.8257208,4.0547396 5.7067979,2.936875"
         id="path38085" />
      <path
         style="fill:#ff8736;stroke-width:1"
         inkscape:connector-curvature="0"
         d="M 16.298333,11.916833 C 15.4813,12.057062 14.477471,11.707283 13.697744,10.927292 12.579879,9.8094271 12.344929,8.2317167 13.173075,7.4033062 L 0.72442917,15.872619 16.297804,11.91604"
         id="path38087" />
      <g
         style="fill:#3e4347"
         id="g38095">
        <path
           style="stroke-width:1"
           inkscape:connector-curvature="0"
           d="m 12.386733,3.6335229 0.02672,0.026723 0.457465,0.4574646 0.09155,0.091546 1.65682,-1.6568208 c 0.271198,-0.2711979 0.788194,-0.1944687 1.154642,0.1719792 0.366183,0.3664479 0.443177,0.8834437 0.171715,1.1549062 l -0.005,0.0045 c -0.135732,0.1359959 -0.0971,0.3944938 0.08599,0.5775855 0.183356,0.1830916 0.441854,0.2217208 0.577586,0.085725 2.64e-4,-5.292e-4 5.29e-4,-7.938e-4 0.0013,-0.00106 0.0013,-0.00106 0.0024,-0.00265 0.0034,-0.0037 C 17.151879,3.9997063 16.997892,2.9659792 16.264996,2.2330833 15.532365,1.5001875 14.498373,1.3464646 13.955448,1.889125 l -1.656556,1.6568208 0.08784,0.087577"
           id="path38089" />
        <path
           style="stroke-width:1"
           inkscape:connector-curvature="0"
           d="m 0.1222375,16.475604 c 0.13387917,0.133615 0.32252708,0.161661 0.42174583,0.06244 7.9375e-4,-5.29e-4 0.35903959,-0.35904 0.82867497,-0.828411 -0.040746,-0.101864 -0.1055687,-0.202406 -0.1934104,-0.290512 -0.0889,-0.08811 -0.18917707,-0.152929 -0.29104165,-0.193675 -0.46910625,0.469106 -0.82788125,0.827617 -0.828675,0.82841 -0.09895417,0.09922 -0.07117292,0.287867 0.06270625,0.421746"
           id="path38091" />
        <path
           style="stroke-width:1"
           inkscape:connector-curvature="0"
           d="m 11.752792,5.635625 c -0.02725,0.00265 -0.07117,-0.02831 -0.110332,-0.068263 l -0.1016,-0.1010708 0.304536,-0.3050646 c -0.05001,0.2532062 0.02937,0.4630208 -0.0926,0.4743979"
           id="path38093" />
      </g>
    </symbol>
    <symbol
       viewBox="0 0 64 64"
       id="emoji-1f331">
      <title
         id="title39897">1f331</title>
      <g
         style="fill:#83bf4f"
         id="g39903">
        <path
           style="stroke-width:1"
           inkscape:connector-curvature="0"
           d="m 12.840494,10.165292 c -2.119313,0 -2.684198,-1.7528649 -2.684198,-1.7528649 0,0 0.565944,-2.1851938 2.684198,-2.1851938 1.459706,0 3.828256,1.9687646 3.828256,1.9687646 0,0 -2.36855,1.9692941 -3.828256,1.9692941"
           id="path39899" />
        <path
           style="stroke-width:1"
           inkscape:connector-curvature="0"
           d="m 4.7696437,1.7634479 c 1.6544396,1.6803688 0.6749521,3.5962167 0.6749521,3.5962167 0,0 -2.0494625,1.1601979 -3.7041666,-0.5201709 C 0.60033958,3.6816771 0.26458333,0.26458333 0.26458333,0.26458333 c 0,0 3.36497087,0.34104792 4.50506037,1.49886457 z"
           id="path39901" />
      </g>
      <g
         style="fill:#75a843"
         id="g39909">
        <path
           style="stroke-width:1"
           inkscape:connector-curvature="0"
           d="M 16.66875,8.1957333 C 15.352712,7.9205667 13.999104,7.7774271 12.678833,7.9248 11.370204,8.0663521 10.071629,8.5328125 9.1781312,9.432925 c -0.4426479,0.4437062 -0.7791979,0.988219 -0.93345,1.567656 -0.0381,0.144198 -0.066146,0.289719 -0.078846,0.434181 -0.014552,0.150019 -0.011377,0.269611 -5.292e-4,0.450586 l 0.050006,1.009385 0.1994958,4.0386 H 7.0918917 l 0.1997604,-4.038864 0.050006,-1.009386 c 0.00714,-0.155575 0.014288,-0.373327 0.049213,-0.556683 0.031485,-0.189442 0.081492,-0.372533 0.1426104,-0.54954 C 7.7816604,10.070042 8.2306583,9.4657333 8.7730542,8.9960979 9.3175667,8.524875 9.9568,8.1907063 10.619581,7.9742771 11.28395,7.756525 11.972925,7.6541312 12.656608,7.6276729 c 1.371071,-0.050535 2.718329,0.1971146 4.011084,0.5680604"
           id="path39905" />
        <path
           style="stroke-width:1"
           inkscape:connector-curvature="0"
           d="M 0.26458333,0.26458333 C 1.6536458,1.1043708 2.9016854,2.1746104 4.0224604,3.3583562 c 1.1176,1.1890375 2.1219583,2.4918459 2.949575,3.9171563 0.4077229,0.7172854 0.7863417,1.4554729 1.0220854,2.2899687 0.05715,0.2100792 0.1029229,0.4280959 0.1211792,0.6646338 l 0.02831,0.624681 0.054504,1.21576 0.2180166,4.862777 h -1.322916 l 0.2177521,-4.863041 0.054504,-1.215761 0.013494,-0.304006 c 0.0037,-0.09684 0.011113,-0.214048 0.010319,-0.287073 C 7.3863729,10.095177 7.3609729,9.91235 7.3218146,9.7289937 7.159625,8.9892187 6.8386854,8.24865 6.4849375,7.5387729 5.7628896,6.1158437 4.8503417,4.7765229 3.8152917,3.5435646 2.7765375,2.3135167 1.6028458,1.1829521 0.26405417,0.26564167"
           id="path39907" />
      </g>
    </symbol>
    <symbol
       viewBox="0 0 64 64"
       id="emoji-1f342">
      <title
         id="title40580">1f342</title>
      <path
         style="fill:#ffd93b;stroke-width:1"
         inkscape:connector-curvature="0"
         d="m 14.959542,8.2936292 c 0.0037,-0.1195917 0.0299,-0.23495 0.07329,-0.3458105 -0.494506,-0.2934229 -0.801687,-0.7164916 -0.789252,-1.179777 0.0209,-0.7469188 0.865452,-1.3440834 1.959769,-1.4443605 0.267229,-2.5066625 0.190764,-4.51908328 0.190764,-4.51908328 0,0 -9.8133953,-0.34660417 -13.3720412,3.09377288 -0.062971,0.06059 -0.1164166,0.1182688 -0.1767416,0.1778 0.5244041,0.3246438 0.8673041,0.8532813 0.8673041,1.4522979 0,0.9876896 -0.9289521,1.7883188 -2.0745979,1.7883188 -0.3418417,0 -0.66357498,-0.072496 -0.94800207,-0.1987021 -1.03108125,3.1046206 3.17764587,4.0057916 4.10315837,4.8995546 1.1863916,1.146968 2.3838958,7.525279 8.3997273,1.711854 1.093787,-1.05754 1.816629,-2.686844 2.294731,-4.4354752 C 15.148719,9.0185875 14.948694,8.6698667 14.959012,8.2946875"
         id="path40582" />
      <path
         style="fill:#db9523;stroke-width:1"
         inkscape:connector-curvature="0"
         d="M 6.4894354,10.818812 7.699375,9.5964375 12.721167,12.710583 7.8919917,9.401175 9.8954167,7.3760542 14.398625,9.3681021 10.093854,7.1755 11.96975,5.2763208 15.377583,5.1038125 12.231687,5.0112083 16.394377,0.80353958 12.041187,4.826 11.945937,1.7854083 11.766021,5.08 9.8028125,6.8950417 7.5334812,2.7318229 9.5937917,7.0866 7.4996146,9.0222917 4.0753771,4.3539833 7.2985312,9.2080292 6.0330292,10.376958 2.6262542,8.359775 l 3.2104541,2.199217 -3.2885062,3.037945 0.6101291,0.590021 3.14325,-3.177646 2.2751521,3.104357 z"
         id="path40584" />
    </symbol>
    <symbol
       viewBox="0 0 64 64"
       id="emoji-1f33d">
      <title
         id="title40327">1f33d</title>
      <path
         style="fill:#8cc63e;stroke-width:1"
         inkscape:connector-curvature="0"
         d="m 15.679208,12.813771 c 0.248709,0.259027 0.248444,0.678921 0,0.938477 L 14.568752,14.9098 c -0.248444,0.259292 -0.651669,0.259292 -0.900112,0 l 0.355335,-1.636713 1.655233,-0.459316"
         id="path40329" />
      <path
         style="fill:#64892f;stroke-width:1"
         inkscape:connector-curvature="0"
         d="m 14.984942,13.843 c 1.429543,-1.187979 2.484966,-3.030802 -0.450586,-5.984875 -2.215091,-2.2293792 -0.251354,-3.6541604 -0.251354,-3.6541604 0,0 -6.6304583,-0.00953 0.70194,9.6390354"
         id="path40331" />
      <path
         style="fill:#c9ac1c;stroke-width:1"
         inkscape:connector-curvature="0"
         d="m 2.9900562,1.933575 c -1.3393208,1.3009562 0.290248,5.1953583 5.7750605,10.522479 2.9964063,2.910417 4.4582293,2.424113 5.7745313,1.099608 C 15.85595,12.2301 16.339873,10.760075 13.446919,7.7443542 8.1526062,2.225675 4.283075,0.58472917 2.9900562,1.933575"
         id="path40333" />
      <g
         style="fill:#ffe62e"
         id="g40447">
        <path
           style="stroke-width:1"
           inkscape:connector-curvature="0"
           d="M 3.6097104,1.7044458 C 3.146425,1.343025 2.2180021,2.1796375 2.9199417,2.7707167 3.34645,3.1300208 4.3166771,2.257425 3.6097104,1.7044458"
           id="path40335" />
        <path
           style="stroke-width:1"
           inkscape:connector-curvature="0"
           d="M 4.4936833,2.568575 C 4.0031458,2.1796375 3.0718125,3.0133396 3.8160854,3.6464875 4.2685229,4.0314562 5.2421896,3.1620354 4.4936833,2.568575"
           id="path40337" />
        <path
           style="stroke-width:1"
           inkscape:connector-curvature="0"
           d="M 5.3930021,3.4475208 C 4.9495604,3.1056792 4.0235187,3.9446729 4.6947667,4.5042667 5.1027542,4.8447854 6.0703354,3.9698083 5.3930021,3.4475208"
           id="path40339" />
        <path
           style="stroke-width:1"
           inkscape:connector-curvature="0"
           d="M 6.2827958,4.3174708 C 5.8393542,3.9756292 4.9133125,4.8146229 5.5842958,5.3744812 5.9922833,5.715 6.9603937,4.8400229 6.2827958,4.3174708"
           id="path40341" />
        <path
           style="stroke-width:1"
           inkscape:connector-curvature="0"
           d="m 7.1728542,5.1871562 c -0.4437063,-0.3418416 -1.369748,0.4971521 -0.6985,1.0570105 0.408252,0.3402541 1.3760979,-0.5344584 0.6985,-1.0570105"
           id="path40343" />
        <path
           style="stroke-width:1"
           inkscape:connector-curvature="0"
           d="M 8.074025,6.0687479 C 7.6305833,5.7269062 6.7045417,6.5659 7.3757896,7.1257583 7.7837771,7.4660125 8.7513583,6.5913 8.074025,6.0687479"
           id="path40345" />
        <path
           style="stroke-width:1"
           inkscape:connector-curvature="0"
           d="M 8.9373604,7.0117229 C 8.4939187,6.6698812 7.5678771,7.508875 8.239125,8.0687333 8.6473771,8.4089875 9.6149583,7.534275 8.9373604,7.0117229"
           id="path40347" />
        <path
           style="stroke-width:1"
           inkscape:connector-curvature="0"
           d="M 9.8081042,7.8607708 C 9.3646625,7.5189292 8.4386208,8.3579229 9.1096042,8.9177812 9.5181208,9.2577708 10.485702,8.3833229 9.8081042,7.8607708"
           id="path40349" />
        <path
           style="stroke-width:1"
           inkscape:connector-curvature="0"
           d="M 10.628312,8.6865354 C 10.184871,8.3446937 9.2588292,9.1834229 9.9298125,9.7432812 10.3378,10.083535 11.305646,9.2088229 10.628312,8.6865354"
           id="path40351" />
        <path
           style="stroke-width:1"
           inkscape:connector-curvature="0"
           d="M 11.521281,9.5488125 C 11.07784,9.2072354 10.151798,10.045965 10.823046,10.605558 11.230769,10.946077 12.198615,10.0711 11.521281,9.5488125"
           id="path40353" />
        <path
           style="stroke-width:1"
           inkscape:connector-curvature="0"
           d="m 12.346517,10.470621 c -0.443707,-0.341577 -1.369748,0.497152 -0.698765,1.056746 0.408252,0.340518 1.376098,-0.534459 0.698765,-1.056746"
           id="path40355" />
        <path
           style="stroke-width:1"
           inkscape:connector-curvature="0"
           d="m 13.297958,11.335279 c -0.443441,-0.342106 -1.369483,0.497152 -0.6985,1.056746 0.407988,0.340519 1.375834,-0.534458 0.6985,-1.056746"
           id="path40357" />
        <path
           style="stroke-width:1"
           inkscape:connector-curvature="0"
           d="m 14.157854,12.229042 c -0.443706,-0.341577 -1.369748,0.497152 -0.698764,1.056745 0.408252,0.340519 1.375833,-0.534458 0.698764,-1.056745"
           id="path40359" />
        <path
           style="stroke-width:1"
           inkscape:connector-curvature="0"
           d="m 14.89075,12.964583 c -0.278606,-0.175683 -1.185069,0.682625 -0.772583,0.982398 0.250825,0.181769 1.197768,-0.71411 0.772583,-0.982398"
           id="path40361" />
        <path
           style="stroke-width:1"
           inkscape:connector-curvature="0"
           d="m 15.750646,11.822642 c 0.133614,0.229923 -0.218017,0.835554 -0.449527,0.964406 -0.632354,0.351631 0.177271,-1.434306 0.449527,-0.964406"
           id="path40363" />
        <path
           style="stroke-width:1"
           inkscape:connector-curvature="0"
           d="M 8.6373229,4.6389396 C 8.1938813,4.2970979 7.2678396,5.1360917 7.9388229,5.6956854 8.3468104,6.0359396 9.3146562,5.1612271 8.6373229,4.6389396"
           id="path40365" />
        <path
           style="stroke-width:1"
           inkscape:connector-curvature="0"
           d="M 10.038292,4.1859729 C 9.6006708,3.8383104 8.7714667,4.5796729 9.4363646,5.1458812 9.8403833,5.4903687 10.706894,4.7169917 10.038292,4.1859729"
           id="path40367" />
        <path
           style="stroke-width:1"
           inkscape:connector-curvature="0"
           d="m 10.975975,5.0940229 c -0.437621,-0.3476625 -1.266825,0.3937 -0.601927,0.9596438 0.404019,0.3444875 1.270794,-0.4288896 0.601927,-0.9596438"
           id="path40369" />
        <path
           style="stroke-width:1"
           inkscape:connector-curvature="0"
           d="m 12.017375,5.9573583 c -0.495829,-0.3937 -1.434835,0.4460875 -0.681831,1.0869084 0.457729,0.3899958 1.439068,-0.485775 0.681831,-1.0869084"
           id="path40371" />
        <path
           style="stroke-width:1"
           inkscape:connector-curvature="0"
           d="m 13.041312,6.9873812 c -0.495829,-0.3937 -1.4351,0.4460875 -0.681831,1.087173 0.457465,0.3899958 1.438804,-0.485775 0.681831,-1.087173"
           id="path40373" />
        <path
           style="stroke-width:1"
           inkscape:connector-curvature="0"
           d="M 14.001221,8.0348667 C 13.505656,7.6411667 12.56665,8.4809542 13.319654,9.1220396 13.777119,9.5115062 14.758458,8.636 14.001221,8.0348667"
           id="path40375" />
        <path
           style="stroke-width:1"
           inkscape:connector-curvature="0"
           d="M 14.943667,9.2236396 C 14.583833,8.7039979 13.742723,9.1048417 14.285648,9.9316646 14.615319,10.434902 15.494,10.01686 14.943667,9.2236396"
           id="path40377" />
        <path
           style="stroke-width:1"
           inkscape:connector-curvature="0"
           d="M 9.5593958,5.5668333 C 9.1156896,5.2249917 8.1896479,6.0639854 8.8606312,6.6235792 9.2688833,6.9638333 10.236465,6.0891208 9.5593958,5.5668333"
           id="path40379" />
        <path
           style="stroke-width:1"
           inkscape:connector-curvature="0"
           d="M 10.483056,6.4965792 C 10.039615,6.1547375 9.1135729,6.9937312 9.7848208,7.5535896 10.192808,7.8935792 11.160654,7.0191312 10.483056,6.4965792"
           id="path40381" />
        <path
           style="stroke-width:1"
           inkscape:connector-curvature="0"
           d="m 11.414125,7.4321458 c -0.443442,-0.3418416 -1.369483,0.4971521 -0.6985,1.0567459 0.407987,0.3402541 1.375833,-0.5344584 0.6985,-1.0567459"
           id="path40383" />
        <path
           style="stroke-width:1"
           inkscape:connector-curvature="0"
           d="M 12.336727,8.3616271 C 11.893021,8.0197854 10.966979,8.8585146 11.637962,9.4181083 12.046215,9.7586271 13.01406,8.88365 12.336727,8.3616271"
           id="path40385" />
        <path
           style="stroke-width:1"
           inkscape:connector-curvature="0"
           d="m 13.279437,9.3106875 c -0.443706,-0.3421063 -1.369483,0.4971521 -0.6985,1.0567455 0.408517,0.340254 1.376098,-0.534458 0.6985,-1.0567455"
           id="path40387" />
        <path
           style="stroke-width:1"
           inkscape:connector-curvature="0"
           d="m 14.184842,10.221648 c -0.443707,-0.3421063 -1.369748,0.496623 -0.6985,1.056746 0.408516,0.339989 1.376098,-0.534459 0.6985,-1.056746"
           id="path40389" />
        <path
           style="stroke-width:1"
           inkscape:connector-curvature="0"
           d="m 15.120937,11.162771 c -0.443706,-0.341577 -1.369747,0.497152 -0.698764,1.057275 0.408517,0.340254 1.376098,-0.534459 0.698764,-1.057275"
           id="path40391" />
        <path
           style="stroke-width:1"
           inkscape:connector-curvature="0"
           d="M 7.7575833,3.7533792 C 7.3141417,3.4115375 6.3881,4.2505312 7.0590833,4.8103896 7.4673354,5.1506437 8.4351812,4.2759312 7.7575833,3.7533792"
           id="path40393" />
        <path
           style="stroke-width:1"
           inkscape:connector-curvature="0"
           d="M 9.2471875,4.0973375 C 9.5482833,3.648075 8.6923563,2.8000854 8.1959979,3.4824458 7.8941083,3.8970479 8.7873417,4.7836667 9.2471875,4.0973375"
           id="path40395" />
        <path
           style="stroke-width:1"
           inkscape:connector-curvature="0"
           d="M 6.8217521,2.921 C 6.3780458,2.5791583 5.4520042,3.4181521 6.1232521,3.9777458 6.5315042,4.3182646 7.49935,3.4432875 6.8217521,2.921"
           id="path40397" />
        <path
           style="stroke-width:1"
           inkscape:connector-curvature="0"
           d="M 5.9002083,2.2333479 C 5.4977771,1.9232562 4.657725,2.6841979 5.2665312,3.1921979 5.6369479,3.5009667 6.5145708,2.7069521 5.9002083,2.2333479"
           id="path40399" />
        <path
           style="stroke-width:1"
           inkscape:connector-curvature="0"
           d="M 4.9310396,1.8285354 C 4.6026917,1.5565437 4.0759062,2.0158604 4.5767625,2.4555979 4.8812979,2.7228271 5.4321604,2.2439312 4.9310396,1.8285354"
           id="path40401" />
        <path
           style="stroke-width:1"
           inkscape:connector-curvature="0"
           d="M 3.8142333,1.4567958 C 3.6533667,1.6705792 4.0677042,2.1322771 4.3320229,1.8089562 4.492625,1.6121062 4.0602958,1.1300354 3.8142333,1.4567958"
           id="path40403" />
        <path
           style="stroke-width:1"
           inkscape:connector-curvature="0"
           d="M 4.3640375,1.3985875 C 4.3169417,1.4943667 4.7664687,1.8695458 4.8855312,1.5298208 4.9577625,1.3229167 4.4336229,1.2562417 4.3640375,1.3985875"
           id="path40405" />
        <path
           style="stroke-width:1"
           inkscape:connector-curvature="0"
           d="m 4.9955979,1.5927917 c -0.055827,0.1143 0.4802188,0.561975 0.6223,0.1563687 0.08599,-0.2465917 -0.5392208,-0.3262312 -0.6223,-0.1563687"
           id="path40407" />
        <path
           style="stroke-width:1"
           inkscape:connector-curvature="0"
           d="M 5.7361667,1.7996958 C 5.6544104,1.8970625 6.0682187,2.4611542 6.3029042,2.1021146 6.4449854,1.8835687 5.8576104,1.6549687 5.7361667,1.7996958"
           id="path40409" />
        <path
           style="stroke-width:1"
           inkscape:connector-curvature="0"
           d="m 15.501937,11.2395 c 0.228336,-0.02275 0.396346,-1.2800542 -0.358245,-1.109927 -0.458259,0.103981 0.01984,1.144587 0.358245,1.109927"
           id="path40411" />
        <path
           style="stroke-width:1"
           inkscape:connector-curvature="0"
           d="M 7.3236667,2.6037646 C 7.1122646,2.7783896 7.5432708,3.8809083 8.1975854,3.2308271 8.5949896,2.835275 7.6371979,2.3450021 7.3236667,2.6037646"
           id="path40413" />
        <path
           style="stroke-width:1"
           inkscape:connector-curvature="0"
           d="M 6.442075,2.1097875 C 6.2714187,2.2505458 6.6193458,3.1406042 7.1477187,2.6162 7.4689229,2.2965833 6.6952812,1.9005021 6.442075,2.1097875"
           id="path40415" />
        <path
           style="stroke-width:1"
           inkscape:connector-curvature="0"
           d="M 5.6993896,7.5951292 C 5.3594,7.1487771 6.1933667,6.2169146 6.7495208,6.8923958 7.0879229,7.3030292 6.2177083,8.2766958 5.6993896,7.5951292"
           id="path40417" />
        <path
           style="stroke-width:1"
           inkscape:connector-curvature="0"
           d="M 5.2493333,9.0037708 C 4.9037875,8.5632396 5.6406521,7.7290083 6.2031562,8.3981396 6.5452625,8.8048042 5.7769125,9.6766062 5.2493333,9.0037708"
           id="path40419" />
        <path
           style="stroke-width:1"
           inkscape:connector-curvature="0"
           d="M 6.6225208,8.5222292 C 6.2827958,8.0758771 7.1164979,7.1440146 7.6729167,7.8194958 8.0110542,8.2301292 7.1411042,9.2040604 6.6225208,8.5222292"
           id="path40421" />
        <path
           style="stroke-width:1"
           inkscape:connector-curvature="0"
           d="M 7.5453875,9.4527687 C 7.2059271,9.0061521 8.0393646,8.0748187 8.5957833,8.7500354 8.9339208,9.1606687 8.0639708,10.134335 7.5453875,9.4527687"
           id="path40423" />
        <path
           style="stroke-width:1"
           inkscape:connector-curvature="0"
           d="M 4.8193854,6.7095687 C 4.4796604,6.2632167 5.3133625,5.3313542 5.8695167,6.0068354 6.2079187,6.4174687 5.3377042,7.3914 4.8193854,6.7095687"
           id="path40425" />
        <path
           style="stroke-width:1"
           inkscape:connector-curvature="0"
           d="M 5.1612271,8.2100208 C 4.7146104,8.5129687 3.8719125,7.6514854 4.5500396,7.1519521 4.962525,6.8482104 5.8433229,7.747 5.1612271,8.2100208"
           id="path40427" />
        <path
           style="stroke-width:1"
           inkscape:connector-curvature="0"
           d="M 3.9925625,5.7681812 C 3.6531021,5.3218292 4.4865396,4.3902312 5.0432229,5.0654479 5.3810958,5.4760812 4.5114104,6.4497479 3.9925625,5.7681812"
           id="path40429" />
        <path
           style="stroke-width:1"
           inkscape:connector-curvature="0"
           d="M 3.3088792,4.8410812 C 3.0006396,4.4362687 3.7568187,3.5906604 4.2619083,4.2034354 4.568825,4.5759687 3.7795729,5.4594125 3.3088792,4.8410812"
           id="path40431" />
        <path
           style="stroke-width:1"
           inkscape:connector-curvature="0"
           d="M 2.9067125,3.8652979 C 2.6365729,3.5350979 3.0927146,3.0048729 3.5295417,3.5091687 3.7967708,3.8155562 3.3194625,4.3698583 2.9067125,3.8652979"
           id="path40433" />
        <path
           style="stroke-width:1"
           inkscape:connector-curvature="0"
           d="M 2.5370896,2.7418771 C 2.74955,2.5799521 3.2083375,2.9969354 2.8871333,3.2628417 2.6916062,3.4247667 2.2124458,2.9895271 2.5370896,2.7418771"
           id="path40435" />
        <path
           style="stroke-width:1"
           inkscape:connector-curvature="0"
           d="M 2.4794104,3.2951208 C 2.5746604,3.248025 2.9477229,3.7004625 2.60985,3.8197896 2.4042688,3.89255 2.3378583,3.3652354 2.4794104,3.2951208"
           id="path40437" />
        <path
           style="stroke-width:1"
           inkscape:connector-curvature="0"
           d="M 2.6722917,3.93065 C 2.7860625,3.8742937 3.2305625,4.4140437 2.8278667,4.5566542 2.5825979,4.6434375 2.5034875,4.0145229 2.6722917,3.93065"
           id="path40439" />
        <path
           style="stroke-width:1"
           inkscape:connector-curvature="0"
           d="M 2.8778729,4.6759812 C 2.9747104,4.5936958 3.5353625,5.0098854 3.178175,5.2458937 2.9612167,5.3892979 2.7342042,4.7979542 2.8778729,4.6759812"
           id="path40441" />
        <path
           style="stroke-width:1"
           inkscape:connector-curvature="0"
           d="M 3.6771792,6.2732708 C 3.8502167,6.0608104 4.9458562,6.4941979 4.3000083,7.1527458 3.9071021,7.5527958 3.4200042,6.5886542 3.6771792,6.2732708"
           id="path40443" />
        <path
           style="stroke-width:1"
           inkscape:connector-curvature="0"
           d="M 3.1855833,5.3861229 C 3.3255479,5.2144083 4.2103146,5.5644521 3.6888208,6.096 3.3710562,6.4193208 2.9778854,5.6409167 3.1855833,5.3861229"
           id="path40445" />
      </g>
      <path
         style="fill:#8cc63e;stroke-width:1"
         inkscape:connector-curvature="0"
         d="m 0.52916667,8.0827562 c 0,0 5.88936043,2.1611168 8.06450003,5.5303208 1.4200183,2.199481 4.2695813,3.01281 5.9869913,0.193146 C 9.3927083,6.8013792 0.52916667,8.0827562 0.52916667,8.0827562 Z"
         id="path40449" />
    </symbol>
    <symbol
       viewBox="0 0 64 64"
       id="emoji-1f3d5">
      <title
         id="title48894">1f3d5</title>
      <path
         style="fill:#d6eef0;stroke-width:1"
         inkscape:connector-curvature="0"
         d="M 0,0 H 16.933333 V 16.933333 H 0 Z"
         id="path48896" />
      <g
         style="fill:#b2c1c0"
         id="g48902">
        <path
           style="stroke-width:1"
           inkscape:connector-curvature="0"
           d="M 0,3.96875 1.0583333,2.9104167 2.778125,1.8520833 l 3.0427083,2.38125 4.2333337,5.55625 H 0 Z"
           id="path48898" />
        <path
           style="opacity:0.5;stroke-width:1"
           inkscape:connector-curvature="0"
           d="M 10.054167,9.7895833 5.8208333,4.2333333 2.778125,1.8520833 2.38125,3.7041667 3.4395833,4.7625 3.175,6.35 4.2333333,7.4083333 3.7041667,9.7895833 Z"
           id="path48900" />
      </g>
      <path
         style="fill:#ffffff;stroke-width:1"
         inkscape:connector-curvature="0"
         d="M 2.778125,1.8520833 1.0583333,2.9104167 0.52916667,3.4395833 H 1.3229167 L 0.92604167,4.5217292 2.1166667,3.9819792 2.38125,5.2916667 3.4395833,4.7625 4.4648437,5.2916667 V 4.365625 L 5.8208333,4.2333333 Z"
         id="path48904" />
      <path
         style="opacity:0.5;fill:#b2c1c0;stroke-width:1"
         inkscape:connector-curvature="0"
         d="M 10.054167,9.7895833 5.8208333,4.2333333 2.778125,1.8520833 2.6458333,3.175 3.4395833,4.7625 3.175,6.35 4.2333333,7.4083333 3.7041667,9.7895833 Z"
         id="path48906" />
      <g
         style="fill:#83bf4f"
         id="g48912">
        <path
           style="stroke-width:1"
           inkscape:connector-curvature="0"
           d="m 0.00502708,8.4666667 c 0.01693334,0 -0.01719791,0 0,0"
           id="path48908" />
        <path
           style="stroke-width:1"
           inkscape:connector-curvature="0"
           d="m 13.280231,9.1275958 0.0016,0.00767 C 12.425362,8.7622062 11.539273,8.4727521 10.583333,8.4666667 9.6281875,8.4600521 8.7918396,8.9032292 8.0414812,9.0992854 3.7041667,10.230644 0,8.4666667 0,8.4666667 V 16.933333 H 16.933333 V 9.5922042 c -1.160991,0.1489604 -2.439987,-0.00529 -3.653102,-0.4646084 z"
           id="path48910" />
      </g>
      <g
         style="fill:#699635"
         id="g48920">
        <circle
           style="stroke-width:1"
           cx="1.3229166"
           cy="11.90625"
           r="1.0583333"
           id="circle48914" />
        <circle
           style="stroke-width:1"
           cx="1.5875"
           cy="10.583333"
           r="0.79374999"
           id="circle48916" />
        <circle
           style="stroke-width:1"
           cx="3.2191854"
           cy="11.377084"
           r="1.5875"
           id="circle48918" />
      </g>
      <path
         style="fill:#89664c;stroke-width:1"
         inkscape:connector-curvature="0"
         d="m 14.768512,8.9476792 h 0.721519 V 11.1125 h -0.721519 z"
         id="path48922" />
      <path
         style="fill:#699635;stroke-width:1"
         inkscape:connector-curvature="0"
         d="m 15.705667,6.0520792 c -0.3175,-0.5969 -0.836613,-0.5969 -1.154377,0 l -1.104107,2.0753916 c -0.317764,0.5966354 0.0034,1.0850563 0.713317,1.0850563 0,0 0.717285,-0.2645834 0.967846,-0.2645834 0.25056,0 0.967846,0.2645834 0.967846,0.2645834 0.710141,0 1.031081,-0.4884209 0.713316,-1.0850563 L 15.705667,6.0520792"
         id="path48924" />
      <path
         style="fill:#75a843;stroke-width:1"
         inkscape:connector-curvature="0"
         d="m 15.590837,4.879975 c -0.25347,-0.4773083 -0.668072,-0.4773083 -0.922866,0 L 13.784262,6.5405 c -0.253735,0.4773083 0.0026,0.8678333 0.570707,0.8678333 0,0 0.58076,-0.2645833 0.774435,-0.2645833 0.193675,0 0.773906,0.2645833 0.773906,0.2645833 0.56859,0 0.8255,-0.390525 0.571236,-0.8675687 L 15.590837,4.879975"
         id="path48926" />
      <path
         style="fill:#83bf4f;stroke-width:1"
         inkscape:connector-curvature="0"
         d="m 15.475479,3.7094583 c -0.189971,-0.3582458 -0.501121,-0.3582458 -0.691356,0 l -0.663046,1.2453938 c -0.190765,0.3579812 0.0021,0.6506104 0.42836,0.6506104 0,0 0.43524,-0.2645833 0.580232,-0.2645833 0.144991,0 0.579966,0.2645833 0.579966,0.2645833 0.426509,0 0.61939,-0.2928938 0.428625,-0.6506104 L 15.475479,3.7094583"
         id="path48928" />
      <g
         style="fill:#ffffff"
         id="g48938">
        <path
           style="stroke-width:1"
           inkscape:connector-curvature="0"
           d="m 8.9958333,1.8520833 c 0,0.2921 -0.2370666,0.5291667 -0.5291666,0.5291667 H 5.8208333 c -0.2921,0 -0.5291666,-0.2370667 -0.5291666,-0.5291667 0,-0.2921 0.2370666,-0.5291666 0.5291666,-0.5291666 h 2.6458334 c 0.2921,0 0.5291666,0.2370666 0.5291666,0.5291666"
           id="path48930" />
        <path
           style="stroke-width:1"
           inkscape:connector-curvature="0"
           d="m 10.054167,2.38125 c 0,0.2921 -0.237067,0.5291667 -0.529167,0.5291667 H 8.4666667 C 8.1745667,2.9104167 7.9375,2.67335 7.9375,2.38125 c 0,-0.2921 0.2370667,-0.5291667 0.5291667,-0.5291667 H 9.525 c 0.2921,0 0.529167,0.2370667 0.529167,0.5291667"
           id="path48932" />
        <path
           style="stroke-width:1"
           inkscape:connector-curvature="0"
           d="m 11.1125,4.4979167 c 0,0.2921 -0.237067,0.5291666 -0.529167,0.5291666 H 9.525 c -0.2921,0 -0.5291667,-0.2370666 -0.5291667,-0.5291666 C 8.9958333,4.2058167 9.2329,3.96875 9.525,3.96875 h 1.058333 c 0.2921,0 0.529167,0.2370667 0.529167,0.5291667"
           id="path48934" />
        <path
           style="stroke-width:1"
           inkscape:connector-curvature="0"
           d="m 13.758333,3.175 c 0,0.2921 -0.237066,0.5291667 -0.529166,0.5291667 h -1.058334 c -0.2921,0 -0.529166,-0.2370667 -0.529166,-0.5291667 0,-0.2921 0.237066,-0.5291667 0.529166,-0.5291667 h 1.058334 c 0.2921,0 0.529166,0.2370667 0.529166,0.5291667"
           id="path48936" />
      </g>
      <path
         style="fill:#ffdd7d;stroke-width:1"
         inkscape:connector-curvature="0"
         d="m 8.1581625,9.5276458 h 4.7624995 l 1.942571,3.5401252 -0.658812,1.653381 -4.077229,0.667015 z"
         id="path48940" />
      <path
         style="fill:#dbb471;stroke-width:1"
         inkscape:connector-curvature="0"
         d="M 6.4553042,14.560021 6.1224583,13.04925 8.1581625,9.5276458 10.462683,13.929254 10.12825,15.65275 Z"
         id="path48942" />
      <path
         style="fill:#89664c;stroke-width:1"
         inkscape:connector-curvature="0"
         d="M 8.1581625,9.5276458 7.1363417,14.767983 8.747125,15.242646 Z"
         id="path48944" />
      <g
         style="fill:#ffdd7d"
         id="g48950">
        <path
           style="stroke-width:1"
           inkscape:connector-curvature="0"
           d="m 8.1581625,9.5276458 c 0,0 0.3635375,3.2125712 0.9686396,4.4021372 L 8.7460667,15.242381 8.1581625,9.5276458"
           id="path48946" />
        <path
           style="stroke-width:1"
           inkscape:connector-curvature="0"
           d="M 7.1363417,14.767983 6.7757146,13.735315 c 0,0 1.1787187,-3.072078 1.3827125,-4.2079338 L 7.1363417,14.767983"
           id="path48948" />
      </g>
      <circle
         style="fill:#699635;stroke-width:1"
         cx="5.0270834"
         cy="11.90625"
         r="1.0583333"
         id="circle48952" />
      <path
         style="fill:#dbb471;stroke-width:1"
         inkscape:connector-curvature="0"
         d="m 10.1981,13.664671 4.666192,-0.5969 -0.39423,1.917964 -4.341812,0.667015 z"
         id="path48954" />
    </symbol>
    <radialGradient
       inkscape:collect="always"
       xlink:href="#linearGradient130193"
       id="radialGradient130197"
       cx="143.53027"
       cy="120.50563"
       fx="143.53027"
       fy="120.50563"
       r="40.173481"
       gradientTransform="matrix(1.2648762,-0.02475479,0.00784175,0.40068385,-38.962722,73.246116)"
       gradientUnits="userSpaceOnUse" />
  </defs>
  <sodipodi:namedview
     id="base"
     pagecolor="#ffffff"
     bordercolor="#666666"
     borderopacity="1.0"
     inkscape:pageopacity="0.0"
     inkscape:pageshadow="2"
     inkscape:zoom="0.23473976"
     inkscape:cx="993.34114"
     inkscape:cy="796.86062"
     inkscape:document-units="mm"
     inkscape:current-layer="layer1"
     showgrid="false"
     inkscape:snap-global="false"
     inkscape:window-width="1366"
     inkscape:window-height="740"
     inkscape:window-x="0"
     inkscape:window-y="0"
     inkscape:window-maximized="1"
     units="px" />
  <metadata
     id="metadata5">
    <rdf:RDF>
      <cc:Work
         rdf:about="">
        <dc:format>image/svg+xml</dc:format>
        <dc:type
           rdf:resource="http://purl.org/dc/dcmitype/StillImage" />
        <dc:title></dc:title>
      </cc:Work>
    </rdf:RDF>
  </metadata>
  <g
     inkscape:label="Layer 1"
     inkscape:groupmode="layer"
     id="layer1"
     transform="translate(0,-227.41444)">
    <use
       id="use92045"
       style="fill:#666666;stroke:none;stroke-width:1.93646502"
       xlink:href="#heavy_rains"
       x="0"
       y="0"
       width="100%"
       height="100%"
       transform="matrix(0.52762607,0,0,0.50542237,-177.41518,-28.644929)" />
    <use
       id="use92860"
       style="fill:#ff6600;stroke:#000000;stroke-width:1.75632644"
       xlink:href="#symbol9761"
       x="0"
       y="0"
       width="100%"
       height="100%"
       transform="matrix(0.27740838,0,0,0.24441395,2.1079119,230.55258)" />
    <use
       id="use94576"
       style="fill:#000000;stroke:none;stroke-width:0.5300408"
       xlink:href="#embassy2"
       x="0"
       y="0"
       width="100%"
       height="100%"
       transform="matrix(1.8866472,0,0,1.8866472,330.9882,115.14454)" />
    <use
       id="use128830"
       xlink:href="#emoji-1f302"
       x="0"
       y="0"
       width="100%"
       height="100%"
       transform="matrix(2.3176115,0,0,2.3176115,547.36203,-127.9209)"
       style="stroke-width:0.43147871" />
    <use
       id="use128874"
       xlink:href="#emoji-1f331"
       x="0"
       y="0"
       width="100%"
       height="100%"
       transform="matrix(2.4374258,0,0,2.4374258,562.07636,0.43166177)"
       style="stroke-width:0.4102689" />
    <use
       id="use128910"
       xlink:href="#emoji-1f342"
       x="0"
       y="0"
       width="100%"
       height="100%"
       transform="matrix(1.6686919,0.41951644,-0.41951644,1.6686919,675.43405,-89.483637)"
       style="stroke-width:0.58118647" />
    <use
       id="use129070"
       xlink:href="#emoji-1f33d"
       x="0"
       y="0"
       width="100%"
       height="100%"
       transform="matrix(2.3706159,0,0,2.3706159,273.73159,15.760403)"
       style="stroke-width:0.42183131" />
    <use
       id="use129394"
       xlink:href="#emoji-1f3d5"
       x="0"
       y="0"
       width="100%"
       height="100%"
       transform="matrix(3.1360545,0,0,3.1360545,268.55209,-160.50914)"
       style="stroke-width:0.318872" />
    <g
       id="g130201"
       transform="translate(564.6945)">
      <path
         sodipodi:nodetypes="ccccccccc"
         inkscape:connector-curvature="0"
         id="rect130105"
         d="m 138.77971,104.62006 c 12.63368,-5.848893 29.3398,-6.627333 43.9286,2.04907 9.83892,5.81922 22.69346,12.32722 22.26711,16.43312 -0.0742,2.90782 -15.21783,5.74023 -18.80948,6.87182 -6.63561,1.6727 -6.16019,1.41112 -12.35009,2.21941 -15.58913,0.89699 -31.74613,-1.3949 -39.80372,-5.39894 -4.22749,-2.27726 -5.05134,-2.81377 -7.75371,-5.70039 -2.40179,-5.23818 -2.20851,-8.02547 1.09186,-10.46787 2.15236,-3.24344 7.28088,-4.13266 11.42943,-6.00622 z"
         style="opacity:1;fill:url(#radialGradient130197);fill-opacity:1;fill-rule:nonzero;stroke:none;stroke-width:2;stroke-linecap:butt;stroke-linejoin:round;stroke-miterlimit:4;stroke-dasharray:none;stroke-opacity:1;paint-order:stroke fill markers" />
      <path
         id="path130116"
         transform="scale(0.26458333)"
         d="m 594.32812,395.77539 c -6.0432,2.39097 -19.1124,5.70683 -29.80859,11.63477 -4.67794,2.59256 -8.62578,5.635 -11.66406,9.41015 -3.52207,4.37627 -5.1868,8.99139 -5.87891,12.94141 -9.51106,-0.20859 -18.85964,-0.18296 -28.0664,0.0684 0.56806,-2.64663 1.54457,-5.55696 3.3789,-8.54492 2.13494,-3.47762 5.17541,-6.66431 9.26758,-9.69727 8.48995,-6.29246 23.23325,-12.3365 28.12891,-14.27344 -0.60845,0.24073 -2.0344,0.73626 -3.28321,1.17578 -6.75743,2.28131 -17.48936,5.35963 -26.59961,10.34375 -4.704,2.57348 -8.69122,5.60785 -11.76953,9.39649 -3.21482,3.95658 -4.90668,8.12106 -5.72656,11.81836 -6.11681,0.24177 -12.17526,0.57895 -18.17383,1.02539 -29.10123,2.16582 -52.89407,6.46537 -69.99023,10.47851 -0.0454,0.0113 0.98883,5.02255 0.94336,5.03321 0.045,-0.0113 1.34955,4.93636 1.39453,4.92578 23.60573,-5.54119 51.65249,-10.81252 85.65234,-13.42774 0.18055,3.63058 1.07166,7.88353 3.47461,12.2129 2.27762,4.10358 5.55025,7.66699 9.65625,10.9375 7.41785,5.90849 23.77378,14.12238 27.20117,16.14843 -4.40579,-2.60447 -18.32899,-10.73914 -25.67968,-17.88086 -3.62499,-3.52191 -6.21525,-7.08225 -7.8711,-10.85547 -1.75447,-3.99805 -2.22248,-7.72429 -2.26562,-10.89453 9.45529,-0.65079 19.36806,-1.09093 29.75976,-1.27734 0.21091,3.77175 1.19887,8.1499 3.73633,12.57617 2.41009,4.20412 5.83229,7.82454 10.04688,11.11719 9.63673,7.52874 22.02648,12.851 27.62109,16.1582 -4.50667,-2.66411 -18.20274,-10.90724 -25.64062,-18.39648 -3.59558,-3.62045 -6.14054,-7.24356 -7.74219,-11.03125 -1.62924,-3.85255 -2.08164,-7.42152 -2.12305,-10.5 9.0428,-0.0756 18.43383,0.0384 28.21289,0.38281 0.17938,3.13751 1.064,6.81582 3.43555,10.5625 2.15822,3.40974 5.21235,6.37985 8.98633,9.11328 6.9312,5.02023 21.74908,11.88354 24.9082,13.60156 -4.04954,-2.20229 -16.6805,-9.08552 -23.59375,-15.24218 -3.36404,-2.99585 -5.7954,-6.00123 -7.36719,-9.14258 -1.61365,-3.22519 -2.11054,-6.19379 -2.20117,-8.72852 0.66884,0.0276 1.32767,0.0484 2,0.0781 8.07611,0.35741 16.13681,0.86653 24.125,1.49218 -0.006,2.79423 0.48266,6.13902 2.05078,9.51954 1.39533,3.00801 3.42177,5.59498 5.94336,7.93164 5.7501,5.32834 13.14963,8.95295 16.44727,11.23242 -2.6775,-1.8508 -10.65964,-7.48623 -14.89649,-12.69336 -2.04177,-2.5093 -3.45612,-5.04225 -4.31445,-7.72852 -0.92237,-2.88664 -1.07355,-5.57185 -1.00781,-7.90039 8.91363,0.74698 17.70903,1.63074 26.32031,2.62305 0.0772,1.72259 0.42489,3.67342 1.26758,5.62695 0.8914,2.06646 2.18673,3.82191 3.7832,5.38282 3.64101,3.55982 8.23299,5.84784 10.24219,7.36328 -1.669,-1.25881 -6.37802,-5.03101 -8.82617,-8.57032 -1.16459,-1.68359 -1.93664,-3.36973 -2.37696,-5.15234 -0.37308,-1.51016 -0.45864,-2.93058 -0.44531,-4.23633 6.92803,0.82621 13.70007,1.71981 20.31055,2.65039 -0.0525,1.8733 0.15747,4.09817 1.04687,6.38282 0.77594,1.99332 1.93982,3.733 3.42578,5.32421 2.7775,2.97438 8.58796,6.69672 9.88086,7.67188 -1.59065,-1.19974 -6.5748,-4.87948 -9.18554,-8.26367 -1.27393,-1.65132 -2.18176,-3.35712 -2.73633,-5.21094 -0.61265,-2.04842 -0.69835,-3.9836 -0.63086,-5.6582 7.80432,1.11277 15.32397,2.28198 22.52734,3.46875 -0.0505,1.60659 0.0201,3.38155 0.37891,4.93945 0.36835,1.59942 0.99649,2.83265 1.92773,3.88086 0.90316,1.01654 2.05261,1.81169 3.25586,2.58789 1.93402,1.24762 2.9795,1.85723 4.46875,2.98047 -1.14542,-0.86393 -2.81247,-2.04999 -4.30859,-3.20899 -1.14543,-0.88732 -2.13794,-1.75814 -2.86524,-2.79687 -0.72695,-1.03824 -1.15522,-2.19268 -1.36914,-3.6543 -0.20636,-1.40892 -0.18938,-2.99919 -0.10937,-4.49804 4.14575,0.68856 8.16052,1.37984 12.06054,2.07226 0.13819,1.41244 0.38062,3.08229 0.86524,4.44141 0.39364,1.10358 0.9055,1.90991 1.59961,2.54687 0.6802,0.62419 1.50316,1.05567 2.38281,1.46485 0.7852,0.36522 1.27372,0.57615 1.72852,0.78125 -0.58639,-0.28119 -1.10562,-0.53409 -1.70508,-0.83203 -0.87182,-0.43333 -1.66227,-0.88316 -2.30664,-1.51563 -0.65159,-0.63961 -1.12299,-1.43681 -1.48242,-2.51953 -0.43818,-1.31995 -0.64761,-2.92293 -0.78321,-4.31445 16.74294,2.97729 31.12779,5.92363 41.84375,8.26953 -13.21995,-2.89406 -31.99045,-7.16748 -54.00586,-11.54688 0.15208,-1.89735 0.37991,-4.14289 0.95704,-5.99219 0.44006,-1.4101 1.04337,-2.48479 1.92382,-3.39648 0.88087,-0.91212 1.99936,-1.6173 3.26953,-2.31445 1.65905,-0.91059 3.48935,-1.81814 4.75586,-2.49219 -1.64665,0.87636 -2.77346,1.31453 -4.8789,2.24414 -1.30988,0.57834 -2.57197,1.18222 -3.62305,2.04492 -1.08381,0.88957 -1.89566,2.0092 -2.50976,3.53125 -0.72124,1.78757 -1.06838,3.93438 -1.24415,5.76367 l -0.14062,-0.0117 c -0.008,0.10154 -0.0103,0.21794 -0.0176,0.32226 -7.18724,-1.42143 -14.69747,-2.84883 -22.49023,-4.24414 0.14956,-1.87454 0.50067,-4.17935 1.61914,-6.50781 0.83782,-1.7442 1.99898,-3.28713 3.51562,-4.71875 3.10817,-2.93392 8.60838,-5.78856 10.36719,-6.72461 -1.42955,0.76081 -7.75221,3.52819 -10.96094,6.03125 -1.71664,1.33911 -3.13846,2.87534 -4.21679,4.72265 -1.40212,2.40199 -1.94694,4.88266 -2.125,6.88282 -6.57239,-1.16619 -13.30442,-2.3072 -20.19727,-3.39453 0.1443,-1.77501 0.40182,-3.90736 1.33594,-6.1211 0.71385,-1.69174 1.74061,-3.23813 3.15429,-4.71875 2.97186,-3.11257 8.21319,-6.10184 10.0586,-7.08398 -2.2216,1.18235 -7.11632,2.72568 -11.26953,5.67187 -1.82109,1.29184 -3.37434,2.82312 -4.57813,4.72461 -1.51896,2.39934 -2.16276,4.92032 -2.37304,6.96875 -8.36739,-1.28789 -16.91469,-2.48788 -25.58204,-3.5664 0.24874,-2.58906 0.75872,-5.72145 2.38477,-8.95118 1.26814,-2.51883 3.06337,-4.80008 5.47266,-6.95898 4.99949,-4.47992 13.76314,-8.79608 16.69726,-10.20508 -3.61371,1.73535 -11.48886,4.15664 -18.00195,8.51953 -2.85617,1.91325 -5.26248,4.15171 -7.11133,6.9043 -2.35661,3.50854 -3.33388,7.1891 -3.65625,10.16406 -8.1811,-0.97419 -16.44467,-1.83546 -24.73438,-2.53515 -0.65884,-0.0556 -1.31152,-0.10462 -1.96874,-0.15821 0.5295,-2.30106 1.48581,-4.86905 3.37109,-7.5039 2.044,-2.8567 4.91759,-5.44444 8.70898,-7.87696 7.79155,-4.99897 21.34322,-9.82183 25.6875,-11.36328 -3.38908,1.20252 -19.09902,5.66336 -26.73047,9.53711 -4.15519,2.1092 -7.63553,4.56572 -10.30078,7.5957 -2.73252,3.10648 -4.18452,6.36083 -4.91015,9.27735 -9.46381,-0.71361 -18.75651,-1.20862 -27.90235,-1.5 0.50889,-3.09858 1.50495,-6.64997 3.78321,-10.30664 2.17464,-3.49037 5.25323,-6.67237 9.37109,-9.68555 8.51821,-6.23306 23.33506,-12.23022 28.20312,-14.15625 z m 117.30079,45.70117 c -0.48633,0.13299 -1.01049,0.267 -1.85352,0.50782 -0.93284,0.26647 -1.81056,0.56221 -2.58008,1.07226 -0.78525,0.52048 -1.41897,1.23721 -1.98047,2.26563 -0.73574,1.34758 -1.26067,3.09646 -1.62109,4.52148 l 0.13867,0.0352 0.13867,0.0351 c 0.35968,-1.42206 0.85322,-3.1481 1.54493,-4.48437 0.52443,-1.01314 1.11569,-1.7261 1.85937,-2.25586 0.73539,-0.52386 1.58871,-0.84322 2.51758,-1.13477 0.6467,-0.20298 1.20612,-0.37447 1.83594,-0.5625 z"
         style="fill:#008000;fill-rule:nonzero;stroke:none;stroke-width:0.99999994px;stroke-linecap:butt;stroke-linejoin:miter;stroke-opacity:1"
         inkscape:connector-curvature="0" />
    </g>
    <path
       style="fill:#00ff00;stroke:#000000;stroke-width:0.26458332px;stroke-linecap:butt;stroke-linejoin:miter;stroke-opacity:1"
       d="m 659.58866,207.36605 c 3.67128,-9.28037 7.41949,-12.52102 21.04084,-14.939 12.81865,0.10815 20.66941,8.26416 30.5092,15.1494 -8.61297,6.62492 -17.49599,12.61974 -27.7739,15.35981 -13.06341,0.35916 -21.93182,-4.14933 -23.77614,-15.57021 z"
       id="path130222"
       inkscape:connector-curvature="0"
       sodipodi:nodetypes="ccccc" />
  </g>
</svg>
